<svg width="1920" height="1080" viewBox="0 0 1920 1080" fill="none" xmlns="http://www.w3.org/2000/svg">
<rect width="1920" height="1080" fill="white"/>
<g filter="url(#filter0_d_1_3)">
<path d="M515.322 438H606.5C612.023 438 616.5 442.477 616.5 448V463.5C616.5 469.023 612.023 473.5 606.5 473.5H552C546.477 473.5 542 477.977 542 483.5V510.5C542 516.023 546.477 520.5 552 520.5H596.5C602.023 520.5 606.5 524.977 606.5 530.5V544.5C606.5 550.023 602.023 554.5 596.5 554.5H552C546.477 554.5 542 558.977 542 564.5V623C542 628.523 537.523 633 532 633H512.181C506.588 633 502.082 628.413 502.183 622.821L505.324 447.821C505.422 442.369 509.869 438 515.322 438Z" fill="#220753"/>
<path d="M641.5 621.406V448.5C641.5 442.977 645.977 438.5 651.5 438.5H669.5C675.023 438.5 679.5 442.977 679.5 448.5V621.226C679.5 625.97 676.167 630.061 671.521 631.019L661.633 633.06C660.227 633.35 658.776 633.334 657.377 633.013L649.265 631.153C644.721 630.112 641.5 626.068 641.5 621.406Z" fill="#220753"/>
<path d="M873.5 553C873.5 599.668 835.668 637.5 789 637.5C742.332 637.5 704.5 599.668 704.5 553C704.5 506.332 742.332 468.5 789 468.5C835.668 468.5 873.5 506.332 873.5 553Z" fill="#BAABD4"/>
<path d="M703.704 641.569L704.544 641.76C707.93 642.53 711.472 641.471 713.881 638.97L837.885 510.197C839.242 508.787 840 506.907 840 504.95V502.799C840 498.879 836.263 496.038 832.485 497.087C831.511 497.358 830.623 497.873 829.904 498.584L699.654 627.387C697.411 629.605 696.597 632.892 697.547 635.9C698.447 638.749 700.791 640.907 703.704 641.569Z" fill="#220753"/>
<path d="M749.773 612.122L757.466 603.866C760.213 600.918 764.455 599.907 768.326 601.024C776.412 603.357 790.552 606.561 800.5 604C816.007 600.008 825.202 592.986 833 579C840.224 566.043 836.58 544.005 834.331 533.879C833.583 530.511 834.4 526.941 836.705 524.374L846.664 513.284C850.94 508.521 858.495 508.974 861.762 514.479C864.708 519.442 867.858 525.389 869.5 530.5C879.526 561.701 872.282 588.442 849.5 612C828.853 633.351 806.813 641.282 777.5 636.5C769.309 635.164 759.417 630.72 752.077 626.931C746.488 624.046 745.485 616.724 749.773 612.122Z" fill="#220753"/>
<path d="M1126.03 493.695L1125.17 494.622C1123.45 496.472 1122.5 498.903 1122.5 501.427V620.862C1122.5 623.804 1123.8 626.596 1126.04 628.496L1126.2 628.634C1128.01 630.162 1130.3 631 1132.66 631H1146.84C1149.2 631 1151.49 630.162 1153.3 628.634L1153.46 628.496C1155.7 626.596 1157 623.804 1157 620.862V501.427C1157 498.903 1156.05 496.472 1154.33 494.622L1153.47 493.695C1151.58 491.658 1148.92 490.5 1146.14 490.5H1133.36C1130.58 490.5 1127.92 491.658 1126.03 493.695Z" fill="#220753"/>
<path d="M1279 490.5H1193C1187.48 490.5 1183 494.977 1183 500.5V514.777C1183 516.233 1183.39 517.663 1184.12 518.92C1185.59 521.447 1188.3 523 1191.22 523H1236.85C1239.35 523 1240.75 525.877 1239.21 527.847L1179.12 604.787C1177.75 606.545 1177 608.712 1177 610.943V624.095C1177 626.886 1178.24 629.533 1180.38 631.32C1182.07 632.729 1184.2 633.5 1186.41 633.5H1279C1284.52 633.5 1289 629.023 1289 623.5V609C1289 603.477 1284.52 599 1279 599H1227.39C1224.84 599 1223.45 596.04 1225.08 594.085L1286.7 519.776C1288.19 517.982 1289 515.724 1289 513.393V500.5C1289 494.977 1284.52 490.5 1279 490.5Z" fill="#220753"/>
<path d="M1408.5 490.5H1322.5C1316.98 490.5 1312.5 494.977 1312.5 500.5V514.777C1312.5 516.233 1312.89 517.663 1313.62 518.92C1315.09 521.447 1317.8 523 1320.72 523H1366.35C1368.85 523 1370.25 525.877 1368.71 527.847L1308.62 604.787C1307.25 606.545 1306.5 608.712 1306.5 610.943V624.095C1306.5 626.886 1307.74 629.533 1309.88 631.32C1311.57 632.729 1313.7 633.5 1315.91 633.5H1408.5C1414.02 633.5 1418.5 629.023 1418.5 623.5V609C1418.5 603.477 1414.02 599 1408.5 599H1356.89C1354.34 599 1352.95 596.04 1354.58 594.085L1416.2 519.776C1417.69 517.982 1418.5 515.724 1418.5 513.393V500.5C1418.5 494.977 1414.02 490.5 1408.5 490.5Z" fill="#220753"/>
<path d="M925.804 623.988L886.617 498.841C884.33 491.537 890.761 484.476 898.246 486.073L913.341 489.293C916.842 490.04 919.676 492.6 920.774 496.007L944.694 570.285C945.582 573.044 949.479 573.064 950.395 570.314L974.721 497.338C976.082 493.254 979.903 490.5 984.208 490.5H1003.29C1007.6 490.5 1011.42 493.254 1012.78 497.338L1037.08 570.239C1038 572.996 1041.91 572.966 1042.79 570.195L1065.79 497.484C1067.11 493.326 1070.96 490.5 1075.32 490.5H1092.37C1099.27 490.5 1104.1 497.318 1101.81 503.823L1059.35 624.323C1057.94 628.324 1054.16 631 1049.92 631H1031.24C1027.16 631 1023.5 628.53 1021.97 624.756L996.326 561.474C995.308 558.961 991.743 558.981 990.753 561.505L965.99 624.651C964.488 628.481 960.794 631 956.68 631H935.347C930.976 631 927.111 628.16 925.804 623.988Z" fill="#220753"/>
<path d="M807.921 472.091C812.171 473.171 815.797 474.077 818.809 474.818C824.712 476.272 828.073 482.579 825.918 488.263L825.308 489.87C824.776 491.272 823.936 492.536 822.85 493.57L817.05 499.086C814.81 501.216 811.717 502.188 808.639 501.904C802.67 501.354 792.112 500.811 782.176 502.462C766.38 505.088 756.608 511.282 747.621 524.535C739.295 536.813 741.005 559.085 742.363 569.368C742.815 572.788 741.689 576.274 739.169 578.63L728.282 588.81C723.606 593.182 716.12 592.072 713.345 586.304C710.843 581.102 708.223 574.904 707.033 569.669C699.765 537.713 709.311 511.705 734.06 490.222C756.489 470.752 779.136 464.772 807.921 472.091Z" fill="#220753"/>
<path d="M726.204 618.069L727.044 618.26C730.43 619.03 733.972 617.971 736.381 615.47L860.385 486.697C861.742 485.287 862.5 483.407 862.5 481.45V479.299C862.5 475.379 858.763 472.538 854.985 473.587C854.011 473.858 853.123 474.373 852.404 475.084L722.154 603.887C719.911 606.105 719.097 609.392 720.047 612.4C720.947 615.249 723.291 617.407 726.204 618.069Z" fill="#220753"/>
<path d="M854.611 469.833C854.611 467.624 854.024 463.184 852.911 460.582C852.54 459.62 852.242 458.727 851.947 457.84C851.798 457.393 851.651 456.953 851.5 456.5" stroke="#220753" stroke-width="2" stroke-linecap="round"/>
<path d="M864.834 473.389C865.127 472.211 868.362 466.322 870.976 462.729C872.385 460.802 873.571 459.171 874.162 458.284C874.46 457.838 874.754 457.398 875.5 456.944" stroke="#220753" stroke-width="2" stroke-linecap="round"/>
<path d="M867.056 481.833C869.113 481.833 873.562 481.247 875.567 480.798C877.718 479.909 879.491 479.318 881.271 478.798C881.718 478.722 882.158 478.722 883.5 478.278" stroke="#220753" stroke-width="2" stroke-linecap="round"/>
</g>
<defs>
<filter id="filter0_d_1_3" x="502.181" y="431.2" width="939.119" height="225.607" filterUnits="userSpaceOnUse" color-interpolation-filters="sRGB">
<feFlood flood-opacity="0" result="BackgroundImageFix"/>
<feColorMatrix in="SourceAlpha" type="matrix" values="0 0 0 0 0 0 0 0 0 0 0 0 0 0 0 0 0 0 127 0" result="hardAlpha"/>
<feOffset dx="12" dy="4"/>
<feGaussianBlur stdDeviation="5.4"/>
<feComposite in2="hardAlpha" operator="out"/>
<feColorMatrix type="matrix" values="0 0 0 0 0 0 0 0 0 0 0 0 0 0 0 0 0 0 0.2 0"/>
<feBlend mode="normal" in2="BackgroundImageFix" result="effect1_dropShadow_1_3"/>
<feBlend mode="normal" in="SourceGraphic" in2="effect1_dropShadow_1_3" result="shape"/>
</filter>
</defs>
</svg>
<svg width="1920" height="1080" viewBox="0 0 1920 1080" fill="none" xmlns="http://www.w3.org/2000/svg">
<rect width="1920" height="1080" fill="white"/>
<g filter="url(#filter0_d_1_3)">
<path d="M515.322 438H606.5C612.023 438 616.5 442.477 616.5 448V463.5C616.5 469.023 612.023 473.5 606.5 473.5H552C546.477 473.5 542 477.977 542 483.5V510.5C542 516.023 546.477 520.5 552 520.5H596.5C602.023 520.5 606.5 524.977 606.5 530.5V544.5C606.5 550.023 602.023 554.5 596.5 554.5H552C546.477 554.5 542 558.977 542 564.5V623C542 628.523 537.523 633 532 633H512.181C506.588 633 502.082 628.413 502.183 622.821L505.324 447.821C505.422 442.369 509.869 438 515.322 438Z" fill="#220753"/>
<path d="M641.5 621.406V448.5C641.5 442.977 645.977 438.5 651.5 438.5H669.5C675.023 438.5 679.5 442.977 679.5 448.5V621.226C679.5 625.97 676.167 630.061 671.521 631.019L661.633 633.06C660.227 633.35 658.776 633.334 657.377 633.013L649.265 631.153C644.721 630.112 641.5 626.068 641.5 621.406Z" fill="#220753"/>
<path d="M873.5 553C873.5 599.668 835.668 637.5 789 637.5C742.332 637.5 704.5 599.668 704.5 553C704.5 506.332 742.332 468.5 789 468.5C835.668 468.5 873.5 506.332 873.5 553Z" fill="#BAABD4"/>
<path d="M703.704 641.569L704.544 641.76C707.93 642.53 711.472 641.471 713.881 638.97L837.885 510.197C839.242 508.787 840 506.907 840 504.95V502.799C840 498.879 836.263 496.038 832.485 497.087C831.511 497.358 830.623 497.873 829.904 498.584L699.654 627.387C697.411 629.605 696.597 632.892 697.547 635.9C698.447 638.749 700.791 640.907 703.704 641.569Z" fill="#220753"/>
<path d="M749.773 612.122L757.466 603.866C760.213 600.918 764.455 599.907 768.326 601.024C776.412 603.357 790.552 606.561 800.5 604C816.007 600.008 825.202 592.986 833 579C840.224 566.043 836.58 544.005 834.331 533.879C833.583 530.511 834.4 526.941 836.705 524.374L846.664 513.284C850.94 508.521 858.495 508.974 861.762 514.479C864.708 519.442 867.858 525.389 869.5 530.5C879.526 561.701 872.282 588.442 849.5 612C828.853 633.351 806.813 641.282 777.5 636.5C769.309 635.164 759.417 630.72 752.077 626.931C746.488 624.046 745.485 616.724 749.773 612.122Z" fill="#220753"/>
<path d="M1126.03 493.695L1125.17 494.622C1123.45 496.472 1122.5 498.903 1122.5 501.427V620.862C1122.5 623.804 1123.8 626.596 1126.04 628.496L1126.2 628.634C1128.01 630.162 1130.3 631 1132.66 631H1146.84C1149.2 631 1151.49 630.162 1153.3 628.634L1153.46 628.496C1155.7 626.596 1157 623.804 1157 620.862V501.427C1157 498.903 1156.05 496.472 1154.33 494.622L1153.47 493.695C1151.58 491.658 1148.92 490.5 1146.14 490.5H1133.36C1130.58 490.5 1127.92 491.658 1126.03 493.695Z" fill="#220753"/>
<path d="M1279 490.5H1193C1187.48 490.5 1183 494.977 1183 500.5V514.777C1183 516.233 1183.39 517.663 1184.12 518.92C1185.59 521.447 1188.3 523 1191.22 523H1236.85C1239.35 523 1240.75 525.877 1239.21 527.847L1179.12 604.787C1177.75 606.545 1177 608.712 1177 610.943V624.095C1177 626.886 1178.24 629.533 1180.38 631.32C1182.07 632.729 1184.2 633.5 1186.41 633.5H1279C1284.52 633.5 1289 629.023 1289 623.5V609C1289 603.477 1284.52 599 1279 599H1227.39C1224.84 599 1223.45 596.04 1225.08 594.085L1286.7 519.776C1288.19 517.982 1289 515.724 1289 513.393V500.5C1289 494.977 1284.52 490.5 1279 490.5Z" fill="#220753"/>
<path d="M1408.5 490.5H1322.5C1316.98 490.5 1312.5 494.977 1312.5 500.5V514.777C1312.5 516.233 1312.89 517.663 1313.62 518.92C1315.09 521.447 1317.8 523 1320.72 523H1366.35C1368.85 523 1370.25 525.877 1368.71 527.847L1308.62 604.787C1307.25 606.545 1306.5 608.712 1306.5 610.943V624.095C1306.5 626.886 1307.74 629.533 1309.88 631.32C1311.57 632.729 1313.7 633.5 1315.91 633.5H1408.5C1414.02 633.5 1418.5 629.023 1418.5 623.5V609C1418.5 603.477 1414.02 599 1408.5 599H1356.89C1354.34 599 1352.95 596.04 1354.58 594.085L1416.2 519.776C1417.69 517.982 1418.5 515.724 1418.5 513.393V500.5C1418.5 494.977 1414.02 490.5 1408.5 490.5Z" fill="#220753"/>
<path d="M925.804 623.988L886.617 498.841C884.33 491.537 890.761 484.476 898.246 486.073L913.341 489.293C916.842 490.04 919.676 492.6 920.774 496.007L944.694 570.285C945.582 573.044 949.479 573.064 950.395 570.314L974.721 497.338C976.082 493.254 979.903 490.5 984.208 490.5H1003.29C1007.6 490.5 1011.42 493.254 1012.78 497.338L1037.08 570.239C1038 572.996 1041.91 572.966 1042.79 570.195L1065.79 497.484C1067.11 493.326 1070.96 490.5 1075.32 490.5H1092.37C1099.27 490.5 1104.1 497.318 1101.81 503.823L1059.35 624.323C1057.94 628.324 1054.16 631 1049.92 631H1031.24C1027.16 631 1023.5 628.53 1021.97 624.756L996.326 561.474C995.308 558.961 991.743 558.981 990.753 561.505L965.99 624.651C964.488 628.481 960.794 631 956.68 631H935.347C930.976 631 927.111 628.16 925.804 623.988Z" fill="#220753"/>
<path d="M807.921 472.091C812.171 473.171 815.797 474.077 818.809 474.818C824.712 476.272 828.073 482.579 825.918 488.263L825.308 489.87C824.776 491.272 823.936 492.536 822.85 493.57L817.05 499.086C814.81 501.216 811.717 502.188 808.639 501.904C802.67 501.354 792.112 500.811 782.176 502.462C766.38 505.088 756.608 511.282 747.621 524.535C739.295 536.813 741.005 559.085 742.363 569.368C742.815 572.788 741.689 576.274 739.169 578.63L728.282 588.81C723.606 593.182 716.12 592.072 713.345 586.304C710.843 581.102 708.223 574.904 707.033 569.669C699.765 537.713 709.311 511.705 734.06 490.222C756.489 470.752 779.136 464.772 807.921 472.091Z" fill="#220753"/>
<path d="M726.204 618.069L727.044 618.26C730.43 619.03 733.972 617.971 736.381 615.47L860.385 486.697C861.742 485.287 862.5 483.407 862.5 481.45V479.299C862.5 475.379 858.763 472.538 854.985 473.587C854.011 473.858 853.123 474.373 852.404 475.084L722.154 603.887C719.911 606.105 719.097 609.392 720.047 612.4C720.947 615.249 723.291 617.407 726.204 618.069Z" fill="#220753"/>
<path d="M854.611 469.833C854.611 467.624 854.024 463.184 852.911 460.582C852.54 459.62 852.242 458.727 851.947 457.84C851.798 457.393 851.651 456.953 851.5 456.5" stroke="#220753" stroke-width="2" stroke-linecap="round"/>
<path d="M864.834 473.389C865.127 472.211 868.362 466.322 870.976 462.729C872.385 460.802 873.571 459.171 874.162 458.284C874.46 457.838 874.754 457.398 875.5 456.944" stroke="#220753" stroke-width="2" stroke-linecap="round"/>
<path d="M867.056 481.833C869.113 481.833 873.562 481.247 875.567 480.798C877.718 479.909 879.491 479.318 881.271 478.798C881.718 478.722 882.158 478.722 883.5 478.278" stroke="#220753" stroke-width="2" stroke-linecap="round"/>
</g>
<defs>
<filter id="filter0_d_1_3" x="502.181" y="431.2" width="939.119" height="225.607" filterUnits="userSpaceOnUse" color-interpolation-filters="sRGB">
<feFlood flood-opacity="0" result="BackgroundImageFix"/>
<feColorMatrix in="SourceAlpha" type="matrix" values="0 0 0 0 0 0 0 0 0 0 0 0 0 0 0 0 0 0 127 0" result="hardAlpha"/>
<feOffset dx="12" dy="4"/>
<feGaussianBlur stdDeviation="5.4"/>
<feComposite in2="hardAlpha" operator="out"/>
<feColorMatrix type="matrix" values="0 0 0 0 0 0 0 0 0 0 0 0 0 0 0 0 0 0 0.2 0"/>
<feBlend mode="normal" in2="BackgroundImageFix" result="effect1_dropShadow_1_3"/>
<feBlend mode="normal" in="SourceGraphic" in2="effect1_dropShadow_1_3" result="shape"/>
</filter>
</defs>
</svg>